<?xml version="1.0" encoding="UTF-8" standalone="no"?>
<!DOCTYPE svg PUBLIC "-//W3C//DTD SVG 1.1//EN" "http://www.w3.org/Graphics/SVG/1.1/DTD/svg11.dtd">
<svg width="100%" height="100%" viewBox="0 0 64 64" version="1.1" xmlns="http://www.w3.org/2000/svg" xmlns:xlink="http://www.w3.org/1999/xlink" xml:space="preserve" xmlns:serif="http://www.serif.com/" style="fill-rule:evenodd;clip-rule:evenodd;stroke-linejoin:round;stroke-miterlimit:2;">
    <g id="Mesa-de-trabajo1" serif:id="Mesa de trabajo1" transform="matrix(0.125,0,0,0.125,0,0)">
        <rect x="0" y="0" width="512" height="512" style="fill:none;"/>
        <g id="backwardIcon">
            <g transform="matrix(0.301682,-0.953409,0.953409,0.301682,-33.639,434.074)">
                <path d="M355.677,210.325L313.116,244.106C310.204,246.417 306.249,246.917 302.853,245.404C299.458,243.891 297.186,240.615 296.958,236.904C294.434,195.787 288.533,99.662 286.302,63.32C286.102,60.067 287.504,56.922 290.057,54.896C292.609,52.87 295.991,52.218 299.113,53.151C334,63.575 426.276,91.145 465.746,102.938C469.308,104.002 471.982,106.958 472.686,110.609C473.389,114.259 472.004,117.997 469.092,120.308L428.325,152.665C446.893,183.621 456.937,219.293 456.937,256C456.937,366.9 366.9,456.937 256,456.937C209.979,456.937 165.585,441.149 129.919,412.741C125.631,409.157 123.047,403.936 122.798,398.352C122.55,392.769 124.66,387.338 128.613,383.387C139.797,372.203 155.034,356.966 165.942,346.53C172.858,339.614 183.818,338.865 191.611,344.775C210.215,358.269 232.726,365.668 256,365.668C316.527,365.668 365.668,316.527 365.668,256C365.668,240.079 362.205,224.514 355.677,210.325Z"/>
            </g>
            <g transform="matrix(8,0,0,8,-12.5937,20.6629)">
                <path d="M9.072,38.76C9.188,38.775 9.286,38.782 9.366,38.782L9.573,38.782C10.11,38.782 10.546,38.622 10.88,38.303C11.215,37.983 11.382,37.569 11.382,37.061C11.382,36.567 11.225,36.167 10.913,35.862C10.601,35.557 10.198,35.405 9.704,35.405C9.181,35.405 8.759,35.579 8.44,35.927C8.12,36.276 7.96,36.726 7.96,37.279L4.016,37.279C4.118,36.421 4.332,35.659 4.659,34.99C4.986,34.322 5.404,33.759 5.912,33.302C6.421,32.844 7.016,32.495 7.699,32.256C8.382,32.016 9.137,31.896 9.965,31.896C10.779,31.896 11.516,32.009 12.177,32.234C12.838,32.459 13.404,32.779 13.877,33.193C14.349,33.607 14.712,34.108 14.966,34.696C15.22,35.285 15.347,35.942 15.347,36.668C15.347,37.453 15.199,38.096 14.901,38.597C14.603,39.098 14.178,39.53 13.626,39.893C14.469,40.155 15.126,40.623 15.598,41.299C16.07,41.974 16.306,42.806 16.306,43.794C16.306,44.607 16.146,45.348 15.827,46.017C15.507,46.685 15.061,47.259 14.487,47.738C13.913,48.217 13.23,48.588 12.438,48.849C11.647,49.111 10.779,49.242 9.834,49.242C8.571,49.242 7.43,48.995 6.413,48.501C5.396,48.007 4.583,47.222 3.973,46.147C3.697,45.668 3.511,45.189 3.417,44.709C3.323,44.23 3.275,43.743 3.275,43.249L7.503,43.249C7.532,44.019 7.757,44.604 8.178,45.003C8.6,45.403 9.166,45.603 9.878,45.603C10.633,45.603 11.185,45.399 11.534,44.992C11.883,44.586 12.057,44.084 12.057,43.489C12.057,42.777 11.846,42.24 11.425,41.876C11.004,41.513 10.503,41.332 9.922,41.332C9.776,41.332 9.638,41.342 9.508,41.364C9.377,41.386 9.232,41.411 9.072,41.441L9.072,38.76Z" style="fill-rule:nonzero;"/>
                <path d="M22.037,40.547C22.037,41.273 22.103,41.934 22.233,42.53C22.364,43.126 22.549,43.641 22.789,44.077C23.029,44.513 23.316,44.851 23.65,45.09C23.984,45.33 24.362,45.45 24.783,45.45C25.19,45.45 25.564,45.33 25.905,45.09C26.246,44.851 26.533,44.513 26.766,44.077C26.998,43.641 27.18,43.126 27.311,42.53C27.441,41.934 27.507,41.273 27.507,40.547C27.507,39.835 27.441,39.178 27.311,38.575C27.18,37.972 26.998,37.456 26.766,37.028C26.533,36.599 26.246,36.265 25.905,36.026C25.564,35.786 25.19,35.666 24.783,35.666C24.362,35.666 23.984,35.786 23.65,36.026C23.316,36.265 23.029,36.599 22.789,37.028C22.549,37.456 22.364,37.972 22.233,38.575C22.103,39.178 22.037,39.835 22.037,40.547ZM17.81,40.547C17.81,39.24 17.981,38.052 18.322,36.984C18.663,35.917 19.143,35.005 19.76,34.25C20.378,33.494 21.111,32.909 21.961,32.495C22.811,32.081 23.751,31.874 24.783,31.874C25.8,31.874 26.737,32.081 27.594,32.495C28.451,32.909 29.185,33.494 29.795,34.25C30.405,35.005 30.881,35.917 31.222,36.984C31.563,38.052 31.734,39.24 31.734,40.547C31.734,41.855 31.563,43.042 31.222,44.11C30.881,45.178 30.405,46.093 29.795,46.856C29.185,47.618 28.451,48.207 27.594,48.621C26.737,49.035 25.8,49.242 24.783,49.242C23.751,49.242 22.811,49.035 21.961,48.621C21.111,48.207 20.378,47.618 19.76,46.856C19.143,46.093 18.663,45.178 18.322,44.11C17.981,43.042 17.81,41.855 17.81,40.547Z" style="fill-rule:nonzero;"/>
                <path d="M40.952,40.482C40.225,40.104 39.513,39.915 38.816,39.915C38.453,39.915 38.159,39.988 37.934,40.133C37.708,40.278 37.596,40.474 37.596,40.721C37.596,40.852 37.614,40.958 37.65,41.037C37.687,41.117 37.767,41.194 37.89,41.266C38.013,41.339 38.195,41.404 38.435,41.462C38.674,41.52 38.99,41.593 39.383,41.68C40.472,41.898 41.286,42.287 41.823,42.846C42.361,43.405 42.629,44.121 42.629,44.992C42.629,45.646 42.499,46.234 42.237,46.757C41.976,47.28 41.613,47.72 41.148,48.076C40.683,48.432 40.124,48.708 39.47,48.904C38.816,49.1 38.097,49.198 37.313,49.198C35.802,49.198 34.313,48.769 32.845,47.912L34.284,45.123C35.388,45.879 36.434,46.256 37.421,46.256C37.785,46.256 38.082,46.176 38.315,46.017C38.547,45.857 38.664,45.653 38.664,45.406C38.664,45.261 38.645,45.141 38.609,45.047C38.573,44.952 38.496,44.865 38.38,44.785C38.264,44.706 38.093,44.633 37.868,44.568C37.643,44.502 37.349,44.433 36.986,44.36C35.765,44.114 34.912,43.747 34.425,43.26C33.939,42.773 33.695,42.102 33.695,41.244C33.695,40.62 33.811,40.057 34.044,39.556C34.276,39.054 34.61,38.63 35.046,38.281C35.482,37.932 36.009,37.663 36.626,37.475C37.244,37.286 37.93,37.191 38.685,37.191C39.92,37.191 41.119,37.431 42.281,37.91L40.952,40.482Z" style="fill-rule:nonzero;"/>
            </g>
        </g>
    </g>
</svg>
