<?xml version="1.0" encoding="UTF-8" standalone="no"?>
<!DOCTYPE svg PUBLIC "-//W3C//DTD SVG 1.1//EN" "http://www.w3.org/Graphics/SVG/1.1/DTD/svg11.dtd">
<svg width="100%" height="100%" viewBox="0 0 64 64" version="1.1" xmlns="http://www.w3.org/2000/svg" xmlns:xlink="http://www.w3.org/1999/xlink" xml:space="preserve" xmlns:serif="http://www.serif.com/" style="fill-rule:evenodd;clip-rule:evenodd;stroke-linejoin:round;stroke-miterlimit:2;">
    <g id="Mesa-de-trabajo1" serif:id="Mesa de trabajo1" transform="matrix(0.125,0,0,0.125,0,0)">
        <rect x="0" y="0" width="512" height="512" style="fill:none;"/>
        <clipPath id="_clip1">
            <rect x="0" y="0" width="512" height="512"/>
        </clipPath>
        <g clip-path="url(#_clip1)">
            <g id="captionsIcon" transform="matrix(8,0,0,8,-37.4035,-9.20672)">
                <g transform="matrix(1,0,0,1,-0.77175,0)">
                    <path d="M35.14,26.15C35.139,26.606 34.89,27.026 34.489,27.244C34.089,27.462 33.601,27.443 33.218,27.196C32.106,26.42 30.827,26.052 29.406,26.052C28.404,26.052 27.477,26.234 26.624,26.598C25.771,26.962 25.037,27.457 24.422,28.082C23.808,28.708 23.325,29.453 22.972,30.318C22.619,31.183 22.443,32.116 22.443,33.117C22.443,34.141 22.619,35.085 22.972,35.95C23.325,36.814 23.814,37.565 24.44,38.202C25.065,38.839 25.799,39.34 26.641,39.704C27.483,40.068 28.393,40.25 29.371,40.25C30.757,40.25 32.051,39.868 33.255,39.105C33.628,38.873 34.097,38.861 34.48,39.074C34.864,39.287 35.102,39.691 35.102,40.13C35.14,41.738 35.14,43.684 35.14,44.715C35.14,45.148 34.866,45.534 34.457,45.677C34.457,45.677 34.457,45.677 34.457,45.677C33.433,46.041 32.477,46.308 31.59,46.479C30.703,46.65 29.826,46.735 28.962,46.735C27.187,46.735 25.486,46.399 23.859,45.728C22.232,45.057 20.799,44.113 19.559,42.895C18.319,41.678 17.323,40.233 16.572,38.561C15.821,36.888 15.446,35.062 15.446,33.083C15.446,31.103 15.816,29.288 16.555,27.639C17.295,25.989 18.285,24.567 19.525,23.372C20.765,22.178 22.204,21.245 23.842,20.574C25.48,19.902 27.198,19.567 28.996,19.567C30.02,19.567 31.027,19.675 32.017,19.891C32.591,20.017 33.184,20.182 33.793,20.389C34.596,20.658 35.136,21.409 35.136,22.256C35.14,23.32 35.14,24.837 35.14,26.15Z" style="fill-rule:nonzero;"/>
                </g>
                <g transform="matrix(1,0,0,1,-0.77175,0)">
                    <path d="M57.905,26.15C57.905,26.606 57.655,27.026 57.255,27.244C56.854,27.462 56.367,27.443 55.983,27.196C54.871,26.42 53.592,26.052 52.171,26.052C51.17,26.052 50.242,26.234 49.389,26.598C48.536,26.962 47.802,27.457 47.188,28.082C46.573,28.708 46.09,29.453 45.737,30.318C45.384,31.183 45.208,32.116 45.208,33.117C45.208,34.141 45.384,35.085 45.737,35.95C46.09,36.814 46.579,37.565 47.205,38.202C47.831,38.839 48.564,39.34 49.406,39.704C50.248,40.068 51.158,40.25 52.137,40.25C53.522,40.25 54.817,39.868 56.021,39.105C56.393,38.873 56.862,38.861 57.246,39.074C57.629,39.287 57.867,39.691 57.867,40.13C57.905,41.738 57.905,43.684 57.905,44.715C57.905,45.148 57.631,45.534 57.222,45.677C57.222,45.677 57.222,45.677 57.222,45.677C56.198,46.041 55.243,46.308 54.355,46.479C53.468,46.65 52.592,46.735 51.727,46.735C49.952,46.735 48.251,46.399 46.625,45.728C44.998,45.057 43.564,44.113 42.324,42.895C41.084,41.678 40.089,40.233 39.338,38.561C38.587,36.888 38.211,35.062 38.211,33.083C38.211,31.103 38.581,29.288 39.321,27.639C40.06,25.989 41.05,24.567 42.29,23.372C43.53,22.178 44.969,21.245 46.608,20.574C48.246,19.902 49.964,19.567 51.761,19.567C52.785,19.567 53.792,19.675 54.782,19.891C55.357,20.017 55.949,20.182 56.558,20.389C57.361,20.658 57.902,21.409 57.902,22.256C57.905,23.32 57.905,24.837 57.905,26.15Z" style="fill-rule:nonzero;"/>
                </g>
                <g transform="matrix(0.125,0,0,0.125,4.67543,1.15084)">
                    <path d="M512,106.13C512,81.659 492.163,61.822 467.692,61.822C370.831,61.822 141.169,61.822 44.308,61.822C19.837,61.822 0,81.659 0,106.13C-0,180.868 -0,331.132 -0,405.87C0,430.341 19.837,450.178 44.308,450.178C141.169,450.178 370.831,450.178 467.692,450.178C492.163,450.178 512,430.341 512,405.87C512,331.132 512,180.868 512,106.13ZM473.643,116.375C473.643,111.366 471.653,106.562 468.111,103.02C464.569,99.478 459.764,97.488 454.755,97.488C383.15,97.488 128.85,97.488 57.245,97.488C52.236,97.488 47.431,99.478 43.889,103.02C40.347,106.562 38.357,111.366 38.357,116.375C38.357,172.732 38.357,339.268 38.357,395.625C38.357,400.634 40.347,405.438 43.889,408.98C47.431,412.522 52.236,414.512 57.245,414.512C128.85,414.512 383.15,414.512 454.755,414.512C459.764,414.512 464.569,412.522 468.111,408.98C471.653,405.438 473.643,400.634 473.643,395.625C473.643,339.268 473.643,172.732 473.643,116.375Z"/>
                </g>
            </g>
        </g>
    </g>
</svg>
