<?xml version="1.0" encoding="UTF-8" standalone="no"?>
<!DOCTYPE svg PUBLIC "-//W3C//DTD SVG 1.1//EN" "http://www.w3.org/Graphics/SVG/1.1/DTD/svg11.dtd">
<svg width="100%" height="100%" viewBox="0 0 64 64" version="1.1" xmlns="http://www.w3.org/2000/svg" xmlns:xlink="http://www.w3.org/1999/xlink" xml:space="preserve" xmlns:serif="http://www.serif.com/" style="fill-rule:evenodd;clip-rule:evenodd;stroke-linejoin:round;stroke-miterlimit:2;">
    <g id="Mesa-de-trabajo1" serif:id="Mesa de trabajo1" transform="matrix(0.125,0,0,0.125,0,0)">
        <rect x="0" y="0" width="512" height="512" style="fill:none;"/>
        <clipPath id="_clip1">
            <rect x="0" y="0" width="512" height="512"/>
        </clipPath>
        <g clip-path="url(#_clip1)">
            <g id="searchCaptionsIcon" transform="matrix(5.31378,0,0,5.31378,-24.8442,14.6432)">
                <path d="M63.881,36.046C65.618,36.44 67.236,37.145 68.675,38.1L68.675,49.085C68.675,53.69 64.942,57.423 60.337,57.423L48.01,57.423C47.222,56.062 46.653,54.561 46.354,52.965L60.326,52.965C61.269,52.965 62.173,52.59 62.84,51.924C63.506,51.257 63.881,50.353 63.881,49.41L63.881,36.046ZM32.476,57.423L13.014,57.423C8.409,57.423 4.675,53.69 4.675,49.085C4.675,40.173 4.675,26.128 4.675,17.217C4.675,12.612 8.409,8.879 13.014,8.879C25.283,8.879 48.068,8.879 60.337,8.879C64.942,8.879 68.675,12.612 68.675,17.217L68.675,22.274L66.496,21.713L63.881,21.313L63.881,16.891C63.881,15.949 63.506,15.044 62.84,14.378C62.173,13.711 61.269,13.337 60.326,13.337C50.471,13.337 22.88,13.337 13.025,13.337C12.082,13.337 11.178,13.711 10.511,14.378C9.845,15.044 9.47,15.949 9.47,16.891C9.47,24.417 9.47,41.885 9.47,49.41C9.47,50.353 9.845,51.257 10.511,51.924C11.178,52.59 12.082,52.965 13.025,52.965L31.677,52.965C31.819,54.491 32.08,55.983 32.476,57.423ZM31.843,46.235L30.818,46.479C29.931,46.65 29.055,46.735 28.19,46.735C26.415,46.735 24.714,46.399 23.088,45.728C21.461,45.057 20.027,44.113 18.787,42.895C17.547,41.678 16.551,40.233 15.801,38.561C15.05,36.888 14.674,35.062 14.674,33.083C14.674,31.103 15.044,29.288 15.784,27.639C16.523,25.989 17.513,24.567 18.753,23.372C19.993,22.178 21.432,21.245 23.07,20.574C24.709,19.902 26.427,19.567 28.224,19.567C29.248,19.567 30.255,19.675 31.245,19.891C31.554,19.959 31.869,20.038 32.188,20.129C33.473,20.484 34.364,21.654 34.364,22.987C34.368,23.64 34.368,24.381 34.368,25.112C34.367,25.754 34.039,26.351 33.496,26.695C32.954,27.038 32.274,27.081 31.693,26.807C30.784,26.28 29.753,26.052 28.634,26.052C27.633,26.052 26.705,26.234 25.852,26.598C24.999,26.962 24.265,27.457 23.651,28.082C23.036,28.708 22.553,29.453 22.2,30.318C21.847,31.183 21.671,32.116 21.671,33.117C21.671,34.141 21.847,35.085 22.2,35.95C22.553,36.814 23.042,37.565 23.668,38.202C24.293,38.839 25.027,39.34 25.869,39.704C26.711,40.068 27.621,40.25 28.6,40.25C29.7,40.25 30.744,40.009 31.73,39.527C32.29,39.267 32.944,39.31 33.464,39.642L33.533,39.699L32.847,41.569C32.608,42.498 32.369,43.428 32.13,44.357L31.843,46.235ZM50.166,40.135L51.365,40.25C52.466,40.25 53.509,40.009 54.495,39.527C55.055,39.267 55.709,39.31 56.23,39.642C56.75,39.974 57.065,40.549 57.065,41.166C57.133,43.244 57.133,45.438 57.133,45.438L56.45,45.677C55.427,46.041 54.471,46.308 53.583,46.479C52.696,46.65 51.82,46.735 50.955,46.735C49.487,46.735 48.068,46.505 46.705,46.032C47.377,43.789 48.576,41.773 50.166,40.135ZM37.458,32.687C37.491,30.86 37.859,29.178 38.549,27.639C39.288,25.989 40.278,24.567 41.518,23.372C42.758,22.178 44.197,21.245 45.836,20.574C47.474,19.902 49.192,19.567 50.99,19.567C52.013,19.567 53.02,19.675 54.01,19.891C54.32,19.959 54.634,20.038 54.954,20.129C55.686,20.331 56.291,20.799 56.649,21.426C48.825,22.483 41.99,26.662 37.458,32.687Z"/>
                <g id="Search" transform="matrix(1.50552,9.27848e-32,-1.8557e-32,1.50552,-8022.17,-408.877)">
                    <path d="M5378.55,318.058C5375.82,320.091 5372.43,321.294 5368.76,321.294C5359.7,321.294 5352.35,313.952 5352.35,304.895C5352.35,295.838 5359.7,288.495 5368.76,288.495C5377.82,288.495 5385.17,295.838 5385.17,304.895C5385.17,308.808 5383.8,312.401 5381.51,315.221L5391.79,326.032C5392.57,326.853 5392.53,328.15 5391.71,328.93C5390.89,329.71 5389.59,329.676 5388.81,328.855L5378.55,318.058ZM5368.76,317.194C5361.97,317.194 5356.46,311.687 5356.46,304.895C5356.46,298.102 5361.97,292.595 5368.76,292.595C5375.56,292.595 5381.07,298.102 5381.07,304.895C5381.07,311.687 5375.56,317.194 5368.76,317.194Z"/>
                </g>
            </g>
        </g>
    </g>
</svg>
