<?xml version="1.0" encoding="UTF-8" standalone="no"?>
<!DOCTYPE svg PUBLIC "-//W3C//DTD SVG 1.1//EN" "http://www.w3.org/Graphics/SVG/1.1/DTD/svg11.dtd">
<svg width="100%" height="100%" viewBox="0 0 512 512" version="1.1" xmlns="http://www.w3.org/2000/svg" xmlns:xlink="http://www.w3.org/1999/xlink" xml:space="preserve" xmlns:serif="http://www.serif.com/" style="fill-rule:evenodd;clip-rule:evenodd;stroke-linejoin:round;stroke-miterlimit:2;">
    <rect id="Mesa-de-trabajo1" serif:id="Mesa de trabajo1" x="0" y="0" width="512" height="512" style="fill:none;"/>
    <clipPath id="_clip1">
        <rect id="Mesa-de-trabajo11" serif:id="Mesa de trabajo1" x="0" y="0" width="512" height="512"/>
    </clipPath>
    <g clip-path="url(#_clip1)">
        <g id="slidesIcon">
            <path d="M512,138.078C512,123.175 499.919,111.094 485.016,111.094L167.999,111.094C153.096,111.094 141.015,123.175 141.015,138.078L141.015,373.922C141.015,388.825 153.096,400.906 167.999,400.906L485.016,400.906C499.919,400.906 512,388.825 512,373.922L512,138.078ZM479.811,149.528C479.811,144.275 475.552,140.016 470.299,140.016C424.65,140.016 228.365,140.016 182.716,140.016C177.463,140.016 173.205,144.275 173.205,149.528C173.205,187.093 173.205,324.907 173.205,362.472C173.205,367.725 177.463,371.984 182.716,371.984C228.365,371.984 424.65,371.984 470.299,371.984C475.552,371.984 479.811,367.725 479.811,362.472C479.811,324.907 479.811,187.093 479.811,149.528Z"/>
            <g transform="matrix(1,0,0,1,-70.405,3.41061e-13)">
                <path d="M207.6,111.094L167.999,111.094C160.843,111.094 153.979,113.937 148.919,118.998C143.858,124.058 141.015,130.922 141.015,138.078L141.015,373.922C141.015,381.078 143.858,387.942 148.919,393.002C153.979,398.063 160.843,400.906 167.999,400.906L207.6,400.906C202.206,394.923 198.943,386.995 198.943,378.304L198.943,371.984L175.409,371.984C172.887,371.984 170.467,370.981 168.684,369.198C166.9,367.414 165.898,364.995 165.898,362.472C165.898,324.907 165.898,187.093 165.898,149.528C165.898,147.005 166.9,144.586 168.684,142.802C170.467,141.019 172.887,140.016 175.409,140.016L198.943,140.016L198.943,133.696C198.943,125.005 202.206,117.077 207.6,111.094Z"/>
            </g>
            <g transform="matrix(1,0,0,1,-141.015,-5.11591e-13)">
                <path d="M207.6,111.094L167.999,111.094C160.843,111.094 153.979,113.937 148.919,118.998C143.858,124.058 141.015,130.922 141.015,138.078L141.015,373.922C141.015,381.078 143.858,387.942 148.919,393.002C153.979,398.063 160.843,400.906 167.999,400.906L207.6,400.906C202.206,394.923 198.943,386.995 198.943,378.304L198.943,371.984L175.409,371.984C172.887,371.984 170.467,370.981 168.684,369.198C166.9,367.414 165.898,364.995 165.898,362.472C165.898,324.907 165.898,187.093 165.898,149.528C165.898,147.005 166.9,144.586 168.684,142.802C170.467,141.019 172.887,140.016 175.409,140.016L198.943,140.016L198.943,133.696C198.943,125.005 202.206,117.077 207.6,111.094Z"/>
            </g>
        </g>
    </g>
</svg>
