<?xml version="1.0" encoding="UTF-8" standalone="no"?>
<!DOCTYPE svg PUBLIC "-//W3C//DTD SVG 1.1//EN" "http://www.w3.org/Graphics/SVG/1.1/DTD/svg11.dtd">
<svg width="100%" height="100%" viewBox="0 0 64 64" version="1.1" xmlns="http://www.w3.org/2000/svg" xmlns:xlink="http://www.w3.org/1999/xlink" xml:space="preserve" xmlns:serif="http://www.serif.com/" style="fill-rule:evenodd;clip-rule:evenodd;stroke-linejoin:round;stroke-miterlimit:2;">
    <g id="Mesa-de-trabajo1" serif:id="Mesa de trabajo1" transform="matrix(0.125,0,0,0.125,0,0)">
        <rect x="0" y="0" width="512" height="512" style="fill:none;"/>
        <g id="volumeHighIcon">
            <g transform="matrix(4.89859e-16,8,-8,4.89859e-16,670.252,-65.0485)">
                <path d="M49.251,54.277C49.251,49.739 45.572,46.06 41.034,46.06C36.496,46.06 32.817,49.739 32.817,54.277L49.251,54.277Z"/>
            </g>
            <g transform="matrix(1,0,0,1,28.1589,7.22343)">
                <path d="M207.873,173.844L207.873,109.946C288.023,109.946 352.997,175.337 352.997,256C352.997,336.663 288.023,402.054 207.874,402.054L207.873,338.156C209.412,338.262 210.965,338.309 212.528,338.309C256.325,338.309 291.882,301.427 291.882,256C291.882,210.573 256.325,173.691 212.528,173.691C210.965,173.691 209.412,173.738 207.873,173.844Z"/>
            </g>
            <g transform="matrix(1.60452,0,0,1.60452,-97.5051,-147.534)">
                <path d="M207.873,155.16L207.873,109.946C288.023,109.946 352.997,175.337 352.997,256C352.997,336.663 288.023,402.054 207.874,402.054L207.873,356.84L212.528,356.962C266.25,356.962 309.865,311.722 309.865,256C309.865,200.278 266.25,155.038 212.528,155.038L207.873,155.16Z"/>
            </g>
            <g id="loudspeaker" transform="matrix(1,0,0,1,28.1589,7.22343)">
                <path d="M84,153.273L168.219,27.969C171.391,23.249 177.276,21.157 182.716,22.816C188.156,24.474 191.873,29.493 191.873,35.18C191.873,133.887 191.873,378.113 191.873,476.82C191.873,482.507 188.156,487.526 182.716,489.184C177.276,490.843 171.391,488.751 168.219,484.031L84,358.727L84,376.822L-3.037,376.822L-3.037,135.178L84,135.178L84,153.273Z"/>
            </g>
        </g>
    </g>
</svg>
