<?xml version="1.0" encoding="UTF-8" standalone="no"?>
<!DOCTYPE svg PUBLIC "-//W3C//DTD SVG 1.1//EN" "http://www.w3.org/Graphics/SVG/1.1/DTD/svg11.dtd">
<svg width="100%" height="100%" viewBox="0 0 256 256" version="1.1" xmlns="http://www.w3.org/2000/svg" xmlns:xlink="http://www.w3.org/1999/xlink" xml:space="preserve" xmlns:serif="http://www.serif.com/" style="fill-rule:evenodd;clip-rule:evenodd;stroke-linejoin:round;stroke-miterlimit:2;">
    <g transform="matrix(1,0,0,1.12928,7.34742,-36.0026)">
        <path d="M64.881,65.571L65.653,58.011C65.716,51.424 73.835,46.089 83.826,46.089C93.857,46.089 102,51.466 102,58.089L101.5,68.542C96.288,64.856 88.807,62.544 80.5,62.544C74.735,62.544 69.368,63.658 64.881,65.571Z"/>
    </g>
    <g transform="matrix(-1,0,0,1.12928,248.653,-36.0026)">
        <path d="M64.881,65.571L65.653,58.011C65.716,51.424 73.835,46.089 83.826,46.089C93.857,46.089 102,51.466 102,58.089L101.5,68.542C96.288,64.856 88.807,62.544 80.5,62.544C74.735,62.544 69.368,63.658 64.881,65.571Z"/>
    </g>
    <g transform="matrix(1,0,0,1.12928,7.34742,-36.0026)">
        <path d="M129.562,96.719L129.624,95.089C129.624,81.291 143.962,70.089 161.624,70.089C179.216,70.089 193.512,81.204 193.623,94.927L193.624,95.089L196.729,121.276C206.965,127.091 212.239,133.908 214.675,146.41C217.073,158.713 223.305,189.137 223.305,192C223.305,209.661 202.813,224 178.805,224C154.797,224 136.305,209.661 134.305,192C133.646,186.176 133.051,180.984 132.515,176.358C129.05,177.4 124.991,178 120.653,178C116.315,178 112.255,177.4 108.79,176.358C108.255,180.984 107.66,186.176 107,192C105,209.661 86.508,224 62.5,224C38.492,224 18,209.661 18,192C18,189.137 24.233,158.713 26.63,146.41C29.066,133.908 34.34,127.091 44.576,121.276L47.682,95.089L47.682,94.927C47.794,81.204 62.089,70.089 79.682,70.089C97.343,70.089 111.682,81.291 111.682,95.089L111.787,97.893C114.663,96.444 118.24,95.585 122.114,95.585C124.782,95.585 127.309,95.992 129.562,96.719ZM63.5,164C82.541,164 98,175.202 98,189C98,202.798 82.541,214 63.5,214C44.459,214 29,202.798 29,189C29,175.202 44.459,164 63.5,164ZM177.805,164C158.764,164 143.305,175.202 143.305,189C143.305,202.798 158.764,214 177.805,214C196.846,214 212.305,202.798 212.305,189C212.305,175.202 196.846,164 177.805,164ZM121,158C127.623,158 133,160.689 133,164C133,167.311 127.623,170 121,170C114.377,170 109,167.311 109,164C109,160.689 114.377,158 121,158Z"/>
    </g>
</svg>
