<?xml version="1.0" encoding="UTF-8" standalone="no"?>
<!DOCTYPE svg PUBLIC "-//W3C//DTD SVG 1.1//EN" "http://www.w3.org/Graphics/SVG/1.1/DTD/svg11.dtd">
<svg width="100%" height="100%" viewBox="0 0 39 32" version="1.1" xmlns="http://www.w3.org/2000/svg" xmlns:xlink="http://www.w3.org/1999/xlink" xml:space="preserve" xmlns:serif="http://www.serif.com/" style="fill-rule:evenodd;clip-rule:evenodd;stroke-linejoin:round;stroke-miterlimit:2;">
    <path d="M37,9.5C37,5.913 34.087,3 30.5,3L8.5,3C4.913,3 2,5.913 2,9.5L2,22.5C2,26.087 4.913,29 8.5,29L30.5,29C34.087,29 37,26.087 37,22.5L37,9.5ZM18.97,21.884C18.97,21.983 18.891,22.125 18.733,22.308C17.111,24.188 15.102,25.128 12.706,25.128C10.21,25.128 8.214,24.217 6.716,22.395C5.319,20.698 4.62,18.577 4.62,16.031C4.62,13.486 5.331,11.356 6.754,9.642C8.268,7.795 10.269,6.872 12.756,6.872C15.277,6.872 17.227,7.725 18.608,9.43C18.741,9.605 18.808,9.75 18.808,9.867C18.808,10.008 18.587,10.426 18.147,11.121C17.706,11.816 17.439,12.163 17.348,12.163C17.24,12.163 16.986,11.959 16.587,11.551C16.096,11.052 15.634,10.678 15.202,10.428C14.486,10.021 13.696,9.817 12.831,9.817C11.184,9.817 9.902,10.445 8.987,11.701C8.172,12.824 7.765,14.238 7.765,15.944C7.765,17.649 8.168,19.076 8.975,20.224C9.89,21.513 11.167,22.158 12.806,22.158C13.621,22.158 14.407,21.954 15.164,21.547C15.663,21.28 16.171,20.902 16.687,20.411C17.119,20.003 17.356,19.8 17.398,19.8C17.448,19.8 17.722,20.13 18.221,20.792C18.721,21.453 18.97,21.817 18.97,21.884ZM34.38,21.884C34.38,21.983 34.301,22.125 34.143,22.308C32.521,24.188 30.512,25.128 28.116,25.128C25.62,25.128 23.624,24.217 22.126,22.395C20.729,20.698 20.03,18.577 20.03,16.031C20.03,13.486 20.741,11.356 22.164,9.642C23.678,7.795 25.678,6.872 28.166,6.872C30.686,6.872 32.637,7.725 34.018,9.43C34.151,9.605 34.218,9.75 34.218,9.867C34.218,10.008 33.997,10.426 33.556,11.121C33.116,11.816 32.849,12.163 32.758,12.163C32.65,12.163 32.396,11.959 31.997,11.551C31.506,11.052 31.044,10.678 30.612,10.428C29.896,10.021 29.106,9.817 28.241,9.817C26.594,9.817 25.312,10.445 24.397,11.701C23.582,12.824 23.174,14.238 23.174,15.944C23.174,17.649 23.578,19.076 24.385,20.224C25.3,21.513 26.577,22.158 28.216,22.158C29.031,22.158 29.817,21.954 30.574,21.547C31.073,21.28 31.581,20.902 32.096,20.411C32.529,20.003 32.766,19.8 32.808,19.8C32.858,19.8 33.132,20.13 33.631,20.792C34.13,21.453 34.38,21.817 34.38,21.884Z" />
</svg>
