<svg width="20" height="20" viewBox="0 0 20 20" fill="none" xmlns="http://www.w3.org/2000/svg">
<path fill-rule="evenodd" clip-rule="evenodd" d="M13 2C12.4477 2 12 1.55228 12 1C12 0.447715 12.4477 0 13 0H19C19.5523 0 20 0.447715 20 1V7C20 7.55228 19.5523 8 19 8C18.4477 8 18 7.55228 18 7V3.41421L12.7071 8.70711C12.3166 9.09763 11.6834 9.09763 11.2929 8.70711C10.9024 8.31658 10.9024 7.68342 11.2929 7.29289L16.5858 2H13ZM7.29289 11.2929C7.68342 10.9024 8.31658 10.9024 8.70711 11.2929C9.09763 11.6834 9.09763 12.3166 8.70711 12.7071L3.41421 18H7C7.55228 18 8 18.4477 8 19C8 19.5523 7.55228 20 7 20H1C0.447715 20 0 19.5523 0 19V13C0 12.4477 0.447715 12 1 12C1.55228 12 2 12.4477 2 13V16.5858L7.29289 11.2929Z" />
</svg>
