<svg width="20" height="20" viewBox="0 0 20 20" fill="none" xmlns="http://www.w3.org/2000/svg">
<path fill-rule="evenodd" clip-rule="evenodd" d="M18.2929 0.292893C18.6834 -0.0976311 19.3166 -0.0976311 19.7071 0.292893C20.0976 0.683417 20.0976 1.31658 19.7071 1.70711L14.4142 7H18C18.5523 7 19 7.44772 19 8C19 8.55228 18.5523 9 18 9H12C11.4477 9 11 8.55228 11 8V2C11 1.44772 11.4477 1 12 1C12.5523 1 13 1.44772 13 2V5.58579L18.2929 0.292893ZM1 12C1 11.4477 1.44772 11 2 11H8C8.55228 11 9 11.4477 9 12V18C9 18.5523 8.55228 19 8 19C7.44772 19 7 18.5523 7 18V14.4142L1.70711 19.7071C1.31658 20.0976 0.683417 20.0976 0.292893 19.7071C-0.0976311 19.3166 -0.0976311 18.6834 0.292893 18.2929L5.58579 13H2C1.44772 13 1 12.5523 1 12Z" />
</svg>
