<?xml version="1.0" encoding="UTF-8" standalone="no"?>
<!DOCTYPE svg PUBLIC "-//W3C//DTD SVG 1.1//EN" "http://www.w3.org/Graphics/SVG/1.1/DTD/svg11.dtd">
<svg width="100%" height="100%" viewBox="0 0 64 64" version="1.1" xmlns="http://www.w3.org/2000/svg" xmlns:xlink="http://www.w3.org/1999/xlink" xml:space="preserve" xmlns:serif="http://www.serif.com/" style="fill-rule:evenodd;clip-rule:evenodd;stroke-linejoin:round;stroke-miterlimit:2;">
    <g id="Mesa-de-trabajo1" serif:id="Mesa de trabajo1" transform="matrix(0.125,0,0,0.125,0,0)">
        <rect x="0" y="0" width="512" height="512" style="fill:none;"/>
        <g id="keyboardIcon">
            <path d="M512,177.811C512,134.658 476.965,99.623 433.811,99.623L78.189,99.623C35.035,99.623 0,134.658 0,177.811L0,334.189C0,377.342 35.035,412.377 78.189,412.377L433.811,412.377C476.965,412.377 512,377.342 512,334.189L512,177.811ZM487.075,183.535C487.075,151.037 460.691,124.652 428.193,124.652L83.807,124.652C51.309,124.652 24.925,151.037 24.925,183.535L24.925,328.465C24.925,360.963 51.309,387.348 83.807,387.348L428.193,387.348C460.691,387.348 487.075,360.963 487.075,328.465L487.075,183.535Z"/>
            <g transform="matrix(0.92829,0,0,0.872244,15.5985,12.5823)">
                <path d="M477.762,203.315C477.762,191.775 473.454,180.708 465.787,172.548C458.12,164.388 447.721,159.804 436.878,159.804C420.926,159.804 403.526,159.804 391.102,159.804C386.598,159.804 382.278,161.709 379.093,165.098C375.907,168.488 374.118,173.086 374.118,177.88C374.118,188.807 374.118,202.667 374.118,213.478C374.118,223.11 381.455,230.919 390.506,230.919C409.93,230.919 442.098,230.919 461.476,230.919C465.795,230.919 469.938,229.093 472.992,225.842C476.046,222.592 477.762,218.183 477.762,213.587C477.762,210.381 477.762,206.905 477.762,203.315ZM353.827,177.583C353.827,167.771 346.342,159.804 337.122,159.804L287.003,159.804C277.783,159.804 270.297,167.771 270.297,177.583L270.297,213.14C270.297,222.952 277.783,230.919 287.003,230.919L337.122,230.919C346.342,230.919 353.827,222.952 353.827,213.14L353.827,177.583ZM250.007,177.583C250.007,167.771 242.521,159.804 233.302,159.804L183.182,159.804C173.962,159.804 166.477,167.771 166.477,177.583L166.477,213.14C166.477,222.952 173.962,230.919 183.182,230.919L233.302,230.919C242.521,230.919 250.007,222.952 250.007,213.14L250.007,177.583ZM146.186,178.912C146.186,168.359 138.148,159.804 128.232,159.804C115.883,159.804 98.967,159.804 83.427,159.804C72.583,159.804 62.184,164.388 54.517,172.548C46.85,180.708 42.543,191.775 42.543,203.315C42.543,206.641 42.543,209.869 42.543,212.874C42.543,222.84 50.133,230.918 59.497,230.919C78.849,230.919 110.299,230.919 129.526,230.919C133.945,230.919 138.182,229.051 141.306,225.725C144.431,222.4 146.186,217.891 146.186,213.188C146.186,202.759 146.186,189.571 146.186,178.912Z"/>
            </g>
            <g transform="matrix(0.92829,0,0,0.872244,15.5985,12.5823)">
                <path d="M351.792,345.001C351.792,335.189 344.307,327.223 335.087,327.223L184.019,327.223C174.799,327.223 167.314,335.189 167.314,345.001L167.314,380.559C167.314,390.371 174.799,398.337 184.019,398.337L335.087,398.337C344.307,398.337 351.792,390.371 351.792,380.559L351.792,345.001ZM476.68,345.515C476.68,335.556 469.094,327.483 459.737,327.483C440.435,327.483 409.078,327.483 389.777,327.483C380.419,327.483 372.834,335.556 372.834,345.515C372.834,356.179 372.834,369.641 372.834,380.305C372.834,390.264 380.419,398.337 389.777,398.337C404.625,398.337 426.608,398.337 444.749,398.337C462.384,398.337 476.68,383.122 476.68,364.354C476.68,357.846 476.68,351.273 476.68,345.515ZM146.272,345.197C146.272,335.27 138.711,327.223 129.383,327.223C110.068,327.223 78.63,327.223 59.315,327.223C49.988,327.223 42.426,335.27 42.426,345.197C42.426,350.968 42.426,357.564 42.426,364.094C42.426,382.862 56.722,398.076 74.357,398.077C92.52,398.077 114.534,398.077 129.383,398.077C138.711,398.077 146.272,390.029 146.272,380.102C146.272,369.41 146.272,355.89 146.272,345.197Z"/>
            </g>
            <g transform="matrix(0.92829,0,0,0.872244,15.5985,12.5342)">
                <path d="M42.426,261.347C42.426,251.535 49.912,243.569 59.131,243.569L95.022,243.569C104.241,243.569 111.727,251.535 111.727,261.347L111.727,296.904C111.727,306.717 104.241,314.683 95.022,314.683L59.131,314.683C49.912,314.683 42.426,306.717 42.426,296.904L42.426,261.347ZM407.631,261.347C407.631,251.535 415.116,243.569 424.336,243.569L461.056,243.569C470.276,243.569 477.762,251.535 477.762,261.347L477.762,296.904C477.762,306.717 470.276,314.683 461.056,314.683L424.336,314.683C415.116,314.683 407.631,306.717 407.631,296.904L407.631,261.347ZM223.029,261.347C223.029,251.535 230.514,243.569 239.734,243.569L279.624,243.569C288.843,243.569 296.329,251.535 296.329,261.347L296.329,296.904C296.329,306.717 288.843,314.683 279.624,314.683L239.734,314.683C230.514,314.683 223.029,306.717 223.029,296.904L223.029,261.347ZM130.728,261.347C130.728,251.535 138.213,243.569 147.433,243.569L187.323,243.569C196.542,243.569 204.028,251.535 204.028,261.347L204.028,296.904C204.028,306.717 196.542,314.683 187.323,314.683L147.433,314.683C138.213,314.683 130.728,306.717 130.728,296.904L130.728,261.347ZM315.33,261.347C315.33,251.535 322.815,243.569 332.035,243.569L371.925,243.569C381.144,243.569 388.63,251.535 388.63,261.347L388.63,296.904C388.63,306.717 381.144,314.683 371.925,314.683L332.035,314.683C322.815,314.683 315.33,306.717 315.33,296.904L315.33,261.347Z"/>
            </g>
        </g>
    </g>
</svg>
