<?xml version="1.0" encoding="UTF-8" standalone="no"?>
<!DOCTYPE svg PUBLIC "-//W3C//DTD SVG 1.1//EN" "http://www.w3.org/Graphics/SVG/1.1/DTD/svg11.dtd">
<svg width="100%" height="100%" viewBox="0 0 64 64" version="1.1" xmlns="http://www.w3.org/2000/svg" xmlns:xlink="http://www.w3.org/1999/xlink" xml:space="preserve" xmlns:serif="http://www.serif.com/" style="fill-rule:evenodd;clip-rule:evenodd;stroke-linejoin:round;stroke-miterlimit:2;">
    <g id="Mesa-de-trabajo1" serif:id="Mesa de trabajo1" transform="matrix(0.125,0,0,0.125,0,0)">
        <rect x="0" y="0" width="512" height="512" style="fill:none;"/>
        <clipPath id="_clip1">
            <rect x="0" y="0" width="512" height="512"/>
        </clipPath>
        <g clip-path="url(#_clip1)">
            <g id="layout" transform="matrix(1.08755,0,0,1.08232,-1.54978e-11,11.7156)">
                <path d="M470.404,198.226C470.404,175.617 452.164,157.289 429.664,157.289C360.16,157.289 219.464,157.289 149.961,157.289C127.461,157.289 109.22,175.617 109.22,198.226C109.22,242.709 109.22,313.363 109.22,357.845C109.22,380.455 127.461,398.783 149.961,398.783C219.464,398.783 360.16,398.783 429.664,398.783C452.164,398.783 470.404,380.455 470.404,357.845C470.404,313.363 470.404,242.709 470.404,198.226ZM440.829,204.577C440.829,200.102 439.059,195.809 435.91,192.644C432.76,189.48 428.489,187.702 424.035,187.702C371.155,187.702 208.469,187.702 155.59,187.702C151.136,187.702 146.864,189.48 143.715,192.644C140.565,195.809 138.796,200.102 138.796,204.577C138.796,239.019 138.796,317.053 138.796,351.495C138.796,355.97 140.565,360.262 143.715,363.427C146.864,366.592 151.136,368.37 155.59,368.37C208.469,368.37 371.155,368.37 424.035,368.37C428.489,368.37 432.76,366.592 435.91,363.427C439.059,360.262 440.829,355.97 440.829,351.495C440.829,317.053 440.829,239.019 440.829,204.577ZM83.903,309.036L83.903,190.046C83.903,174.115 90.201,158.836 101.412,147.571C112.623,136.306 127.828,129.977 143.682,129.977L400.155,129.977L400.155,69.352C400.155,46.742 381.915,28.414 359.414,28.414C282.665,28.414 117.49,28.414 40.741,28.414C18.24,28.414 0,46.742 -0,69.352C0,122.549 0,214.901 0,268.098C0,290.708 18.24,309.036 40.741,309.036L83.903,309.036Z"/>
            </g>
        </g>
    </g>
</svg>
