<?xml version="1.0" encoding="UTF-8" standalone="no"?>
<!DOCTYPE svg PUBLIC "-//W3C//DTD SVG 1.1//EN" "http://www.w3.org/Graphics/SVG/1.1/DTD/svg11.dtd">
<svg width="100%" height="100%" viewBox="0 0 64 64" version="1.1" xmlns="http://www.w3.org/2000/svg" xmlns:xlink="http://www.w3.org/1999/xlink" xml:space="preserve" xmlns:serif="http://www.serif.com/" style="fill-rule:evenodd;clip-rule:evenodd;stroke-linejoin:round;stroke-miterlimit:2;">
    <g id="Mesa-de-trabajo1" serif:id="Mesa de trabajo1" transform="matrix(0.125,0,0,0.125,0,0)">
        <rect x="0" y="0" width="512" height="512" style="fill:none;"/>
        <g id="volumeLowIcon">
            <g transform="matrix(4.89859e-16,8,-8,4.89859e-16,670.252,-65.0485)">
                <path d="M49.251,54.277C49.251,49.739 45.572,46.06 41.034,46.06C36.496,46.06 32.817,49.739 32.817,54.277L49.251,54.277Z"/>
            </g>
            <g id="loudspeaker" transform="matrix(1,0,0,1,28.1589,7.22343)">
                <path d="M84,153.273L168.219,27.969C171.391,23.249 177.276,21.157 182.716,22.816C188.156,24.474 191.873,29.493 191.873,35.18C191.873,133.887 191.873,378.113 191.873,476.82C191.873,482.507 188.156,487.526 182.716,489.184C177.276,490.843 171.391,488.751 168.219,484.031L84,358.727L84,376.822L-3.037,376.822L-3.037,135.178L84,135.178L84,153.273Z"/>
            </g>
        </g>
    </g>
</svg>
