<?xml version="1.0" encoding="UTF-8" standalone="no"?>
<!DOCTYPE svg PUBLIC "-//W3C//DTD SVG 1.1//EN" "http://www.w3.org/Graphics/SVG/1.1/DTD/svg11.dtd">
<svg width="100%" height="100%" viewBox="0 0 64 64" version="1.1" xmlns="http://www.w3.org/2000/svg" xmlns:xlink="http://www.w3.org/1999/xlink" xml:space="preserve" xmlns:serif="http://www.serif.com/" style="fill-rule:evenodd;clip-rule:evenodd;stroke-linejoin:round;stroke-miterlimit:2;">
    <g id="Mesa-de-trabajo1" serif:id="Mesa de trabajo1" transform="matrix(0.125,0,0,0.125,0,0)">
        <rect x="0" y="0" width="512" height="512" style="fill:none;"/>
        <path id="Downloads" d="M167.094,103.981L135.858,103.981C118.445,103.981 101.746,110.898 89.433,123.21C77.121,135.523 70.204,152.222 70.204,169.635L70.204,411.669C70.204,429.082 77.121,445.781 89.433,458.094C101.746,470.406 118.445,477.323 135.858,477.323L377.892,477.323C395.305,477.323 412.004,470.406 424.316,458.094C436.629,445.781 443.546,429.082 443.546,411.669L443.546,169.635C443.546,152.222 436.629,135.523 424.316,123.21C412.004,110.898 395.305,103.981 377.892,103.981L346.655,103.981L346.655,143.049L379.716,143.049C386.284,143.049 392.582,145.658 397.225,150.302C401.869,154.945 404.478,161.243 404.478,167.81L404.478,413.494C404.478,420.061 401.869,426.359 397.225,431.002C392.582,435.646 386.284,438.255 379.716,438.255L134.033,438.255C127.466,438.255 121.168,435.646 116.524,431.002C111.881,426.359 109.272,420.061 109.272,413.494L109.272,167.81C109.272,161.243 111.881,154.945 116.524,150.302C121.168,145.658 127.466,143.049 134.033,143.049L167.094,143.049L167.094,103.981ZM309.071,255.457L351.272,255.457C356.584,255.457 361.44,258.458 363.816,263.209C366.192,267.961 365.679,273.647 362.492,277.896C336.919,311.994 288.958,375.944 267.22,404.929C264.571,408.461 260.415,410.539 256,410.539C251.585,410.539 247.429,408.461 244.78,404.929C223.042,375.944 175.081,311.994 149.508,277.896C146.321,273.647 145.808,267.961 148.184,263.209C150.56,258.458 155.416,255.457 160.728,255.457C180.3,255.457 202.929,255.457 202.929,255.457L202.929,50.981C202.929,43.236 209.208,36.956 216.954,36.956C237.282,36.956 274.718,36.956 295.046,36.956C302.792,36.956 309.071,43.236 309.071,50.981C309.071,99.235 309.071,255.457 309.071,255.457Z"/>
    </g>
</svg>
