<?xml version="1.0" encoding="UTF-8" standalone="no"?>
<!DOCTYPE svg PUBLIC "-//W3C//DTD SVG 1.1//EN" "http://www.w3.org/Graphics/SVG/1.1/DTD/svg11.dtd">
<svg width="100%" height="100%" viewBox="0 0 64 64" version="1.1" xmlns="http://www.w3.org/2000/svg" xmlns:xlink="http://www.w3.org/1999/xlink" xml:space="preserve" xmlns:serif="http://www.serif.com/" style="fill-rule:evenodd;clip-rule:evenodd;stroke-linejoin:round;stroke-miterlimit:2;">
    <g id="Mesa-de-trabajo1" serif:id="Mesa de trabajo1" transform="matrix(0.125,0,0,0.125,0,0)">
        <rect x="0" y="0" width="512" height="512" style="fill:none;"/>
        <clipPath id="_clip1">
            <rect x="0" y="0" width="512" height="512"/>
        </clipPath>
        <g clip-path="url(#_clip1)">
            <g transform="matrix(8.60945,0,0,9.26493,-16.5603,-37.3015)">
                <path d="M61.393,15.481C61.393,12.84 59.089,10.699 56.247,10.699C44.996,10.699 18.32,10.699 7.07,10.699C4.228,10.699 1.924,12.84 1.924,15.481C1.924,23.548 1.924,39.767 1.924,47.833C1.924,50.474 4.228,52.616 7.07,52.616C18.32,52.616 44.996,52.616 56.247,52.616C59.089,52.616 61.393,50.474 61.393,47.833C61.393,39.767 61.393,23.548 61.393,15.481Z"/>
            </g>
        </g>
    </g>
</svg>
