<svg width="100%" height="100%" viewBox="0 0 400 400" version="1.1" style="fill-rule:evenodd;clip-rule:evenodd;stroke-linejoin:round;stroke-miterlimit:2;">
    <path d="M200,0C310.383,0 400,89.617 400,200C400,310.383 310.383,400 200,400C89.617,400 0,310.383 0,200C0,157.788 13.106,118.612 35.467,86.324L71.242,111.041C53.743,136.309 43.487,166.966 43.487,200C43.487,286.382 113.618,356.513 200,356.513C286.382,356.513 356.513,286.382 356.513,200C356.513,113.618 286.382,43.487 200,43.487L200,0Z" style="fill: var(--highlight-bg-color);"/>
    <path d="M71.242,111.041L35.453,86.314C72.797,32.264 134.304,0 200,0L200,43.487C146.652,43.487 99.502,70.236 71.242,111.041Z" style="fill:white;"/>
</svg>
